# MagicaVoxel @ Ephtracy

# group
o 

# material
mtllib Glider.mtl
usemtl palette

# normals
vn -1 0 0
vn 1 0 0
vn 0 0 1
vn 0 0 -1
vn 0 -1 0
vn 0 1 0

# texcoords
vt 0.298828 0.5
vt 0.306641 0.5
vt 0.310547 0.5

# verts
v -1 1.9 1
v -1 1.9 0.8
v -1 2 1
v -1 2 0.8
v -0.9 1.9 0.8
v -0.9 1.9 0.5
v -0.9 2 0.8
v -0.9 2 0.5
v -0.8 1.9 0.5
v -0.8 1.9 0.3
v -0.8 2 0.5
v -0.8 2 0.3
v -0.7 1.9 0.3
v -0.7 1.9 0.1
v -0.7 1.9 -0.1
v -0.7 2 0.3
v -0.7 2 0.1
v -0.7 2 -0.1
v -0.6 1.9 -0.1
v -0.6 1.9 -0.4
v -0.6 2 -0.1
v -0.6 2 -0.4
v -0.4 1.9 -0.4
v -0.4 1.9 -0.5
v -0.4 1.9 -0.7
v -0.4 2 -0.4
v -0.4 2 -0.5
v -0.4 2 -0.7
v -0.2 1.9 -0.7
v -0.2 1.9 -1
v -0.2 2 -0.7
v -0.2 2 -1
v -0.1 1.9 -1
v -0.1 1.9 -1.1
v -0.1 2 -1
v -0.1 2 -1.1
v 0.1 1.9 -1
v 0.1 1.9 -1.1
v 0.1 2 -1
v 0.1 2 -1.1
v 0.2 1.9 -0.7
v 0.2 1.9 -1
v 0.2 2 -0.7
v 0.2 2 -1
v 0.4 1.9 -0.4
v 0.4 1.9 -0.7
v 0.4 2 -0.4
v 0.4 2 -0.7
v 0.6 1.9 -0.1
v 0.6 1.9 -0.4
v 0.6 2 -0.1
v 0.6 2 -0.4
v 0.7 1.9 0.3
v 0.7 1.9 -0.1
v 0.7 2 0.3
v 0.7 2 -0.1
v 0.8 1.9 0.5
v 0.8 1.9 0.3
v 0.8 2 0.5
v 0.8 2 0.3
v 0.9 1.9 0.8
v 0.9 1.9 0.5
v 0.9 2 0.8
v 0.9 2 0.5
v 1 1.9 1
v 1 1.9 0.8
v 1 2 1
v 1 2 0.8
v -1 1.9 1
v -1 2 1
v 1 1.9 1
v 1 2 1
v -1 1.9 0.8
v -1 2 0.8
v -0.9 1.9 0.8
v -0.9 2 0.8
v 0.9 1.9 0.8
v 0.9 2 0.8
v 1 1.9 0.8
v 1 2 0.8
v -0.9 1.9 0.5
v -0.9 2 0.5
v -0.8 1.9 0.5
v -0.8 2 0.5
v 0.8 1.9 0.5
v 0.8 2 0.5
v 0.9 1.9 0.5
v 0.9 2 0.5
v -0.8 1.9 0.3
v -0.8 2 0.3
v -0.7 1.9 0.3
v -0.7 2 0.3
v 0.7 1.9 0.3
v 0.7 2 0.3
v 0.8 1.9 0.3
v 0.8 2 0.3
v -0.7 1.9 -0.1
v -0.7 2 -0.1
v -0.6 1.9 -0.1
v -0.6 2 -0.1
v 0.6 1.9 -0.1
v 0.6 2 -0.1
v 0.7 1.9 -0.1
v 0.7 2 -0.1
v -0.6 1.9 -0.4
v -0.6 2 -0.4
v -0.4 1.9 -0.4
v -0.4 2 -0.4
v 0.4 1.9 -0.4
v 0.4 2 -0.4
v 0.6 1.9 -0.4
v 0.6 2 -0.4
v -0.4 1.9 -0.7
v -0.4 2 -0.7
v -0.3 1.9 -0.7
v -0.3 2 -0.7
v -0.2 1.9 -0.7
v -0.2 2 -0.7
v 0.2 1.9 -0.7
v 0.2 2 -0.7
v 0.4 1.9 -0.7
v 0.4 2 -0.7
v -0.2 1.9 -1
v -0.2 2 -1
v -0.1 1.9 -1
v -0.1 2 -1
v 0.1 1.9 -1
v 0.1 2 -1
v 0.2 1.9 -1
v 0.2 2 -1
v -0.1 1.9 -1.1
v -0.1 2 -1.1
v 0.1 1.9 -1.1
v 0.1 2 -1.1
v -1 1.9 1
v 1 1.9 1
v -0.8 1.9 0.9
v -0.7 1.9 0.9
v -0.5 1.9 0.9
v -0.3 1.9 0.9
v -0.1 1.9 0.9
v 0.2 1.9 0.9
v 0.4 1.9 0.9
v 0.6 1.9 0.9
v 0.8 1.9 0.9
v -1 1.9 0.8
v -0.9 1.9 0.8
v 0.7 1.9 0.8
v 0.8 1.9 0.8
v 0.9 1.9 0.8
v 1 1.9 0.8
v -0.9 1.9 0.5
v -0.8 1.9 0.5
v -0.7 1.9 0.5
v 0.8 1.9 0.5
v 0.9 1.9 0.5
v 0.6 1.9 0.4
v 0.7 1.9 0.4
v -0.8 1.9 0.3
v -0.7 1.9 0.3
v 0.7 1.9 0.3
v 0.8 1.9 0.3
v 0.5 1.9 0.2
v 0.6 1.9 0.2
v -0.7 1.9 0.1
v -0.6 1.9 0.1
v -0.6 1.9 0
v -0.5 1.9 0
v 0.4 1.9 0
v 0.5 1.9 0
v -0.7 1.9 -0.1
v -0.6 1.9 -0.1
v 0.3 1.9 -0.1
v 0.4 1.9 -0.1
v 0.6 1.9 -0.1
v 0.7 1.9 -0.1
v -0.5 1.9 -0.3
v -0.4 1.9 -0.3
v 0.2 1.9 -0.3
v 0.3 1.9 -0.3
v -0.6 1.9 -0.4
v -0.4 1.9 -0.4
v 0.4 1.9 -0.4
v 0.6 1.9 -0.4
v -0.4 1.9 -0.5
v -0.3 1.9 -0.5
v 0.1 1.9 -0.5
v 0.2 1.9 -0.5
v 0 1.9 -0.6
v 0.1 1.9 -0.6
v -0.4 1.9 -0.7
v -0.3 1.9 -0.7
v -0.2 1.9 -0.7
v -0.1 1.9 -0.7
v 0 1.9 -0.7
v 0.2 1.9 -0.7
v 0.4 1.9 -0.7
v -0.2 1.9 -1
v -0.1 1.9 -1
v 0.1 1.9 -1
v 0.2 1.9 -1
v -0.1 1.9 -1.1
v 0.1 1.9 -1.1
v -1 2 1
v 1 2 1
v -0.8 2 0.9
v -0.7 2 0.9
v -0.5 2 0.9
v -0.3 2 0.9
v -0.1 2 0.9
v 0.2 2 0.9
v 0.4 2 0.9
v 0.6 2 0.9
v 0.8 2 0.9
v -1 2 0.8
v -0.9 2 0.8
v 0.7 2 0.8
v 0.8 2 0.8
v 0.9 2 0.8
v 1 2 0.8
v -0.9 2 0.5
v -0.8 2 0.5
v -0.7 2 0.5
v 0.8 2 0.5
v 0.9 2 0.5
v 0.6 2 0.4
v 0.7 2 0.4
v -0.8 2 0.3
v -0.7 2 0.3
v 0.7 2 0.3
v 0.8 2 0.3
v 0.5 2 0.2
v 0.6 2 0.2
v -0.7 2 0.1
v -0.6 2 0.1
v -0.6 2 0
v -0.5 2 0
v 0.4 2 0
v 0.5 2 0
v -0.7 2 -0.1
v -0.6 2 -0.1
v 0.3 2 -0.1
v 0.4 2 -0.1
v 0.6 2 -0.1
v 0.7 2 -0.1
v -0.5 2 -0.3
v -0.4 2 -0.3
v 0.2 2 -0.3
v 0.3 2 -0.3
v -0.6 2 -0.4
v -0.4 2 -0.4
v 0.4 2 -0.4
v 0.6 2 -0.4
v -0.4 2 -0.5
v -0.3 2 -0.5
v 0.1 2 -0.5
v 0.2 2 -0.5
v 0 2 -0.6
v 0.1 2 -0.6
v -0.4 2 -0.7
v -0.3 2 -0.7
v -0.2 2 -0.7
v -0.1 2 -0.7
v 0 2 -0.7
v 0.2 2 -0.7
v 0.4 2 -0.7
v -0.2 2 -1
v -0.1 2 -1
v 0.1 2 -1
v 0.2 2 -1
v -0.1 2 -1.1
v 0.1 2 -1.1

# faces
f 3/3/1 2/3/1 1/3/1
f 4/3/1 2/3/1 3/3/1
f 7/3/1 6/3/1 5/3/1
f 8/3/1 6/3/1 7/3/1
f 11/3/1 10/3/1 9/3/1
f 12/3/1 10/3/1 11/3/1
f 16/1/1 14/1/1 13/1/1
f 17/3/1 15/3/1 14/3/1
f 17/1/1 14/1/1 16/1/1
f 18/3/1 15/3/1 17/3/1
f 21/3/1 20/3/1 19/3/1
f 22/3/1 20/3/1 21/3/1
f 26/2/1 24/2/1 23/2/1
f 27/3/1 25/3/1 24/3/1
f 27/2/1 24/2/1 26/2/1
f 28/3/1 25/3/1 27/3/1
f 31/3/1 30/3/1 29/3/1
f 32/3/1 30/3/1 31/3/1
f 35/3/1 34/3/1 33/3/1
f 36/3/1 34/3/1 35/3/1
f 37/3/2 38/3/2 39/3/2
f 39/3/2 38/3/2 40/3/2
f 41/3/2 42/3/2 43/3/2
f 43/3/2 42/3/2 44/3/2
f 45/3/2 46/3/2 47/3/2
f 47/3/2 46/3/2 48/3/2
f 49/3/2 50/3/2 51/3/2
f 51/3/2 50/3/2 52/3/2
f 53/3/2 54/3/2 55/3/2
f 55/3/2 54/3/2 56/3/2
f 57/3/2 58/3/2 59/3/2
f 59/3/2 58/3/2 60/3/2
f 61/3/2 62/3/2 63/3/2
f 63/3/2 62/3/2 64/3/2
f 65/3/2 66/3/2 67/3/2
f 67/3/2 66/3/2 68/3/2
f 71/3/3 70/3/3 69/3/3
f 72/3/3 70/3/3 71/3/3
f 73/3/4 74/3/4 75/3/4
f 75/3/4 74/3/4 76/3/4
f 77/3/4 78/3/4 79/3/4
f 79/3/4 78/3/4 80/3/4
f 81/3/4 82/3/4 83/3/4
f 83/3/4 82/3/4 84/3/4
f 85/3/4 86/3/4 87/3/4
f 87/3/4 86/3/4 88/3/4
f 89/3/4 90/3/4 91/3/4
f 91/3/4 90/3/4 92/3/4
f 93/3/4 94/3/4 95/3/4
f 95/3/4 94/3/4 96/3/4
f 97/3/4 98/3/4 99/3/4
f 99/3/4 98/3/4 100/3/4
f 101/3/4 102/3/4 103/3/4
f 103/3/4 102/3/4 104/3/4
f 105/3/4 106/3/4 107/3/4
f 107/3/4 106/3/4 108/3/4
f 109/3/4 110/3/4 111/3/4
f 111/3/4 110/3/4 112/3/4
f 113/3/4 114/3/4 115/3/4
f 115/3/4 114/3/4 116/3/4
f 115/1/4 116/1/4 117/1/4
f 117/1/4 116/1/4 118/1/4
f 119/3/4 120/3/4 121/3/4
f 121/3/4 120/3/4 122/3/4
f 123/3/4 124/3/4 125/3/4
f 125/3/4 124/3/4 126/3/4
f 127/3/4 128/3/4 129/3/4
f 129/3/4 128/3/4 130/3/4
f 131/3/4 132/3/4 133/3/4
f 133/3/4 132/3/4 134/3/4
f 137/3/5 136/3/5 135/3/5
f 138/3/5 136/3/5 137/3/5
f 139/3/5 136/3/5 138/3/5
f 140/3/5 136/3/5 139/3/5
f 141/3/5 136/3/5 140/3/5
f 142/3/5 136/3/5 141/3/5
f 143/3/5 136/3/5 142/3/5
f 144/3/5 136/3/5 143/3/5
f 145/3/5 136/3/5 144/3/5
f 146/3/5 137/3/5 135/3/5
f 147/3/5 137/3/5 146/3/5
f 148/1/5 145/1/5 144/1/5
f 149/3/5 136/3/5 145/3/5
f 149/1/5 145/1/5 148/1/5
f 150/3/5 136/3/5 149/3/5
f 151/3/5 136/3/5 150/3/5
f 152/3/5 137/3/5 147/3/5
f 153/2/5 138/2/5 137/2/5
f 153/3/5 137/3/5 152/3/5
f 154/1/5 139/1/5 138/1/5
f 154/2/5 138/2/5 153/2/5
f 155/3/5 150/3/5 149/3/5
f 155/3/5 149/3/5 148/3/5
f 156/3/5 150/3/5 155/3/5
f 157/1/5 148/1/5 144/1/5
f 157/2/5 144/2/5 143/2/5
f 158/3/5 155/3/5 148/3/5
f 158/1/5 148/1/5 157/1/5
f 159/3/5 154/3/5 153/3/5
f 160/1/5 139/1/5 154/1/5
f 160/3/5 154/3/5 159/3/5
f 161/3/5 155/3/5 158/3/5
f 161/3/5 158/3/5 157/3/5
f 162/3/5 155/3/5 161/3/5
f 163/2/5 157/2/5 143/2/5
f 164/3/5 161/3/5 157/3/5
f 164/2/5 157/2/5 163/2/5
f 165/1/5 139/1/5 160/1/5
f 166/1/5 139/1/5 165/1/5
f 167/3/5 166/3/5 165/3/5
f 167/1/5 139/1/5 166/1/5
f 168/2/5 140/2/5 139/2/5
f 168/1/5 139/1/5 167/1/5
f 169/1/5 143/1/5 142/1/5
f 169/2/5 163/2/5 143/2/5
f 170/3/5 164/3/5 163/3/5
f 170/2/5 163/2/5 169/2/5
f 171/3/5 167/3/5 165/3/5
f 171/3/5 168/3/5 167/3/5
f 172/3/5 168/3/5 171/3/5
f 173/1/5 169/1/5 142/1/5
f 174/3/5 170/3/5 169/3/5
f 174/1/5 169/1/5 173/1/5
f 175/3/5 164/3/5 170/3/5
f 175/3/5 170/3/5 174/3/5
f 175/3/5 161/3/5 164/3/5
f 176/3/5 161/3/5 175/3/5
f 177/2/5 140/2/5 168/2/5
f 177/3/5 168/3/5 172/3/5
f 178/2/5 140/2/5 177/2/5
f 179/2/5 142/2/5 141/2/5
f 179/1/5 173/1/5 142/1/5
f 180/3/5 174/3/5 173/3/5
f 180/1/5 173/1/5 179/1/5
f 180/3/5 175/3/5 174/3/5
f 181/3/5 177/3/5 172/3/5
f 181/3/5 178/3/5 177/3/5
f 182/2/5 140/2/5 178/2/5
f 182/3/5 178/3/5 181/3/5
f 183/3/5 175/3/5 180/3/5
f 183/3/5 180/3/5 179/3/5
f 184/3/5 175/3/5 183/3/5
f 185/2/5 140/2/5 182/2/5
f 186/1/5 141/1/5 140/1/5
f 186/2/5 140/2/5 185/2/5
f 187/2/5 179/2/5 141/2/5
f 188/3/5 183/3/5 179/3/5
f 188/2/5 179/2/5 187/2/5
f 189/2/5 187/2/5 141/2/5
f 190/3/5 188/3/5 187/3/5
f 190/2/5 187/2/5 189/2/5
f 191/3/5 186/3/5 185/3/5
f 192/1/5 141/1/5 186/1/5
f 192/3/5 186/3/5 191/3/5
f 193/1/5 141/1/5 192/1/5
f 194/2/5 189/2/5 141/2/5
f 194/1/5 141/1/5 193/1/5
f 195/3/5 190/3/5 189/3/5
f 195/2/5 189/2/5 194/2/5
f 196/3/5 183/3/5 188/3/5
f 196/3/5 190/3/5 195/3/5
f 196/3/5 188/3/5 190/3/5
f 197/3/5 183/3/5 196/3/5
f 198/3/5 195/3/5 194/3/5
f 198/3/5 196/3/5 195/3/5
f 198/3/5 194/3/5 193/3/5
f 199/3/5 196/3/5 198/3/5
f 200/3/5 196/3/5 199/3/5
f 201/3/5 196/3/5 200/3/5
f 202/3/5 200/3/5 199/3/5
f 203/3/5 200/3/5 202/3/5
f 204/3/6 205/3/6 206/3/6
f 206/3/6 205/3/6 207/3/6
f 207/3/6 205/3/6 208/3/6
f 208/3/6 205/3/6 209/3/6
f 209/3/6 205/3/6 210/3/6
f 210/3/6 205/3/6 211/3/6
f 211/3/6 205/3/6 212/3/6
f 212/3/6 205/3/6 213/3/6
f 213/3/6 205/3/6 214/3/6
f 204/3/6 206/3/6 215/3/6
f 215/3/6 206/3/6 216/3/6
f 213/1/6 214/1/6 217/1/6
f 214/3/6 205/3/6 218/3/6
f 217/1/6 214/1/6 218/1/6
f 218/3/6 205/3/6 219/3/6
f 219/3/6 205/3/6 220/3/6
f 216/3/6 206/3/6 221/3/6
f 206/2/6 207/2/6 222/2/6
f 221/3/6 206/3/6 222/3/6
f 207/1/6 208/1/6 223/1/6
f 222/2/6 207/2/6 223/2/6
f 218/3/6 219/3/6 224/3/6
f 217/3/6 218/3/6 224/3/6
f 224/3/6 219/3/6 225/3/6
f 213/1/6 217/1/6 226/1/6
f 212/2/6 213/2/6 226/2/6
f 217/3/6 224/3/6 227/3/6
f 226/1/6 217/1/6 227/1/6
f 222/3/6 223/3/6 228/3/6
f 223/1/6 208/1/6 229/1/6
f 228/3/6 223/3/6 229/3/6
f 227/3/6 224/3/6 230/3/6
f 226/3/6 227/3/6 230/3/6
f 230/3/6 224/3/6 231/3/6
f 212/2/6 226/2/6 232/2/6
f 226/3/6 230/3/6 233/3/6
f 232/2/6 226/2/6 233/2/6
f 229/1/6 208/1/6 234/1/6
f 234/1/6 208/1/6 235/1/6
f 234/3/6 235/3/6 236/3/6
f 235/1/6 208/1/6 236/1/6
f 208/2/6 209/2/6 237/2/6
f 236/1/6 208/1/6 237/1/6
f 211/1/6 212/1/6 238/1/6
f 212/2/6 232/2/6 238/2/6
f 232/3/6 233/3/6 239/3/6
f 238/2/6 232/2/6 239/2/6
f 234/3/6 236/3/6 240/3/6
f 236/3/6 237/3/6 240/3/6
f 240/3/6 237/3/6 241/3/6
f 211/1/6 238/1/6 242/1/6
f 238/3/6 239/3/6 243/3/6
f 242/1/6 238/1/6 243/1/6
f 239/3/6 233/3/6 244/3/6
f 243/3/6 239/3/6 244/3/6
f 233/3/6 230/3/6 244/3/6
f 244/3/6 230/3/6 245/3/6
f 237/2/6 209/2/6 246/2/6
f 241/3/6 237/3/6 246/3/6
f 246/2/6 209/2/6 247/2/6
f 210/2/6 211/2/6 248/2/6
f 211/1/6 242/1/6 248/1/6
f 242/3/6 243/3/6 249/3/6
f 248/1/6 242/1/6 249/1/6
f 243/3/6 244/3/6 249/3/6
f 241/3/6 246/3/6 250/3/6
f 246/3/6 247/3/6 250/3/6
f 247/2/6 209/2/6 251/2/6
f 250/3/6 247/3/6 251/3/6
f 249/3/6 244/3/6 252/3/6
f 248/3/6 249/3/6 252/3/6
f 252/3/6 244/3/6 253/3/6
f 251/2/6 209/2/6 254/2/6
f 209/1/6 210/1/6 255/1/6
f 254/2/6 209/2/6 255/2/6
f 210/2/6 248/2/6 256/2/6
f 248/3/6 252/3/6 257/3/6
f 256/2/6 248/2/6 257/2/6
f 210/2/6 256/2/6 258/2/6
f 256/3/6 257/3/6 259/3/6
f 258/2/6 256/2/6 259/2/6
f 254/3/6 255/3/6 260/3/6
f 255/1/6 210/1/6 261/1/6
f 260/3/6 255/3/6 261/3/6
f 261/1/6 210/1/6 262/1/6
f 210/2/6 258/2/6 263/2/6
f 262/1/6 210/1/6 263/1/6
f 258/3/6 259/3/6 264/3/6
f 263/2/6 258/2/6 264/2/6
f 257/3/6 252/3/6 265/3/6
f 264/3/6 259/3/6 265/3/6
f 259/3/6 257/3/6 265/3/6
f 265/3/6 252/3/6 266/3/6
f 263/3/6 264/3/6 267/3/6
f 264/3/6 265/3/6 267/3/6
f 262/3/6 263/3/6 267/3/6
f 267/3/6 265/3/6 268/3/6
f 268/3/6 265/3/6 269/3/6
f 269/3/6 265/3/6 270/3/6
f 268/3/6 269/3/6 271/3/6
f 271/3/6 269/3/6 272/3/6
