# MagicaVoxel @ Ephtracy

# group
o 

# material
mtllib mamechi.mtl
usemtl palette

# normals
vn -1 0 0
vn 1 0 0
vn 0 0 1
vn 0 0 -1
vn 0 -1 0
vn 0 1 0

# texcoords
vt 0.0175781 0.5
vt 0.0253906 0.5
vt 0.107422 0.5
vt 0.876953 0.5
vt 0.916016 0.5
vt 0.958984 0.5

# verts
v -0.5 0 0
v -0.5 0 -0.1
v -0.5 0.2 0
v -0.5 0.2 -0.1
v -0.5 0.3 0
v -0.5 0.3 -0.1
v -0.5 0.5 0
v -0.5 0.5 -0.1
v -0.5 0.6 0
v -0.5 0.6 -0.1
v -0.5 0.8 0
v -0.5 0.8 -0.1
v -0.3 0.8 0
v -0.3 0.8 -0.1
v -0.3 1 0
v -0.3 1 -0.1
v 0.1 0.8 0
v 0.1 0.8 -0.1
v 0.1 1 0
v 0.1 1 -0.1
v -0.1 0.8 0
v -0.1 0.8 -0.1
v -0.1 1 0
v -0.1 1 -0.1
v 0.3 0.8 0
v 0.3 0.8 -0.1
v 0.3 1 0
v 0.3 1 -0.1
v 0.5 0 0
v 0.5 0 -0.1
v 0.5 0.2 0
v 0.5 0.2 -0.1
v 0.5 0.3 0
v 0.5 0.3 -0.1
v 0.5 0.5 0
v 0.5 0.5 -0.1
v 0.5 0.6 0
v 0.5 0.6 -0.1
v 0.5 0.8 0
v 0.5 0.8 -0.1
v -0.5 0 0
v -0.5 0.2 0
v -0.5 0.3 0
v -0.5 0.5 0
v -0.5 0.6 0
v -0.5 0.8 0
v -0.3 0.2 0
v -0.3 0.3 0
v -0.3 0.5 0
v -0.3 0.8 0
v -0.3 1 0
v -0.2 0.1 0
v -0.2 0.2 0
v -0.2 0.3 0
v -0.2 0.5 0
v -0.1 0.8 0
v -0.1 1 0
v 0.1 0.8 0
v 0.1 1 0
v 0.2 0.1 0
v 0.2 0.2 0
v 0.2 0.3 0
v 0.2 0.5 0
v 0.3 0.2 0
v 0.3 0.3 0
v 0.3 0.5 0
v 0.3 0.8 0
v 0.3 1 0
v 0.5 0 0
v 0.5 0.2 0
v 0.5 0.3 0
v 0.5 0.5 0
v 0.5 0.6 0
v 0.5 0.8 0
v -0.5 0 -0.1
v -0.5 0.2 -0.1
v -0.5 0.3 -0.1
v -0.5 0.5 -0.1
v -0.5 0.6 -0.1
v -0.5 0.8 -0.1
v -0.3 0.2 -0.1
v -0.3 0.3 -0.1
v -0.3 0.5 -0.1
v -0.3 0.8 -0.1
v -0.3 1 -0.1
v -0.2 0.1 -0.1
v -0.2 0.2 -0.1
v -0.2 0.3 -0.1
v -0.2 0.5 -0.1
v -0.1 0.8 -0.1
v -0.1 1 -0.1
v 0.1 0.8 -0.1
v 0.1 1 -0.1
v 0.2 0.1 -0.1
v 0.2 0.2 -0.1
v 0.2 0.3 -0.1
v 0.2 0.5 -0.1
v 0.3 0.2 -0.1
v 0.3 0.3 -0.1
v 0.3 0.5 -0.1
v 0.3 0.8 -0.1
v 0.3 1 -0.1
v 0.5 0 -0.1
v 0.5 0.2 -0.1
v 0.5 0.3 -0.1
v 0.5 0.5 -0.1
v 0.5 0.6 -0.1
v 0.5 0.8 -0.1
v -0.5 0 0
v 0.5 0 0
v -0.5 0 -0.1
v 0.5 0 -0.1
v -0.5 0.8 0
v -0.3 0.8 0
v -0.1 0.8 0
v 0.1 0.8 0
v 0.3 0.8 0
v 0.5 0.8 0
v -0.5 0.8 -0.1
v -0.3 0.8 -0.1
v -0.1 0.8 -0.1
v 0.1 0.8 -0.1
v 0.3 0.8 -0.1
v 0.5 0.8 -0.1
v -0.3 1 0
v -0.1 1 0
v 0.1 1 0
v 0.3 1 0
v -0.3 1 -0.1
v -0.1 1 -0.1
v 0.1 1 -0.1
v 0.3 1 -0.1

# faces
f 3/1/1 2/1/1 1/1/1
f 4/1/1 2/1/1 3/1/1
f 5/2/1 4/2/1 3/2/1
f 6/2/1 4/2/1 5/2/1
f 7/4/1 6/4/1 5/4/1
f 8/4/1 6/4/1 7/4/1
f 9/1/1 8/1/1 7/1/1
f 10/1/1 8/1/1 9/1/1
f 11/5/1 10/5/1 9/5/1
f 12/5/1 10/5/1 11/5/1
f 15/5/1 14/5/1 13/5/1
f 16/5/1 14/5/1 15/5/1
f 19/5/1 18/5/1 17/5/1
f 20/5/1 18/5/1 19/5/1
f 21/5/2 22/5/2 23/5/2
f 23/5/2 22/5/2 24/5/2
f 25/5/2 26/5/2 27/5/2
f 27/5/2 26/5/2 28/5/2
f 29/1/2 30/1/2 31/1/2
f 31/1/2 30/1/2 32/1/2
f 31/2/2 32/2/2 33/2/2
f 33/2/2 32/2/2 34/2/2
f 33/4/2 34/4/2 35/4/2
f 35/4/2 34/4/2 36/4/2
f 35/1/2 36/1/2 37/1/2
f 37/1/2 36/1/2 38/1/2
f 37/5/2 38/5/2 39/5/2
f 39/5/2 38/5/2 40/5/2
f 47/1/3 42/1/3 41/1/3
f 47/2/3 43/2/3 42/2/3
f 48/4/3 44/4/3 43/4/3
f 48/2/3 43/2/3 47/2/3
f 49/1/3 45/1/3 44/1/3
f 49/4/3 44/4/3 48/4/3
f 50/5/3 46/5/3 45/5/3
f 52/1/3 48/1/3 47/1/3
f 52/1/3 47/1/3 41/1/3
f 53/1/3 48/1/3 52/1/3
f 54/6/3 49/6/3 48/6/3
f 54/1/3 48/1/3 53/1/3
f 55/1/3 45/1/3 49/1/3
f 55/6/3 49/6/3 54/6/3
f 56/5/3 51/5/3 50/5/3
f 56/5/3 50/5/3 45/5/3
f 57/5/3 51/5/3 56/5/3
f 58/5/3 56/5/3 45/5/3
f 60/3/3 53/3/3 52/3/3
f 60/1/3 52/1/3 41/1/3
f 61/1/3 54/1/3 53/1/3
f 61/3/3 53/3/3 60/3/3
f 61/1/3 55/1/3 54/1/3
f 62/1/3 55/1/3 61/1/3
f 63/1/3 45/1/3 55/1/3
f 63/1/3 55/1/3 62/1/3
f 64/1/3 62/1/3 61/1/3
f 64/1/3 61/1/3 60/1/3
f 65/6/3 63/6/3 62/6/3
f 65/1/3 62/1/3 64/1/3
f 66/1/3 45/1/3 63/1/3
f 66/6/3 63/6/3 65/6/3
f 67/5/3 59/5/3 58/5/3
f 67/5/3 58/5/3 45/5/3
f 68/5/3 59/5/3 67/5/3
f 69/1/3 60/1/3 41/1/3
f 69/1/3 64/1/3 60/1/3
f 70/2/3 65/2/3 64/2/3
f 70/1/3 64/1/3 69/1/3
f 71/4/3 66/4/3 65/4/3
f 71/2/3 65/2/3 70/2/3
f 72/1/3 45/1/3 66/1/3
f 72/4/3 66/4/3 71/4/3
f 73/5/3 67/5/3 45/5/3
f 73/1/3 45/1/3 72/1/3
f 74/5/3 67/5/3 73/5/3
f 75/1/4 76/1/4 81/1/4
f 76/2/4 77/2/4 81/2/4
f 77/4/4 78/4/4 82/4/4
f 81/2/4 77/2/4 82/2/4
f 78/1/4 79/1/4 83/1/4
f 82/4/4 78/4/4 83/4/4
f 79/5/4 80/5/4 84/5/4
f 81/1/4 82/1/4 86/1/4
f 75/1/4 81/1/4 86/1/4
f 86/1/4 82/1/4 87/1/4
f 82/6/4 83/6/4 88/6/4
f 87/1/4 82/1/4 88/1/4
f 83/1/4 79/1/4 89/1/4
f 88/6/4 83/6/4 89/6/4
f 84/5/4 85/5/4 90/5/4
f 79/5/4 84/5/4 90/5/4
f 90/5/4 85/5/4 91/5/4
f 79/5/4 90/5/4 92/5/4
f 86/3/4 87/3/4 94/3/4
f 75/1/4 86/1/4 94/1/4
f 87/1/4 88/1/4 95/1/4
f 94/3/4 87/3/4 95/3/4
f 88/1/4 89/1/4 95/1/4
f 95/1/4 89/1/4 96/1/4
f 89/1/4 79/1/4 97/1/4
f 96/1/4 89/1/4 97/1/4
f 95/1/4 96/1/4 98/1/4
f 94/1/4 95/1/4 98/1/4
f 96/6/4 97/6/4 99/6/4
f 98/1/4 96/1/4 99/1/4
f 97/1/4 79/1/4 100/1/4
f 99/6/4 97/6/4 100/6/4
f 92/5/4 93/5/4 101/5/4
f 79/5/4 92/5/4 101/5/4
f 101/5/4 93/5/4 102/5/4
f 75/1/4 94/1/4 103/1/4
f 94/1/4 98/1/4 103/1/4
f 98/2/4 99/2/4 104/2/4
f 103/1/4 98/1/4 104/1/4
f 99/4/4 100/4/4 105/4/4
f 104/2/4 99/2/4 105/2/4
f 100/1/4 79/1/4 106/1/4
f 105/4/4 100/4/4 106/4/4
f 79/5/4 101/5/4 107/5/4
f 106/1/4 79/1/4 107/1/4
f 107/5/4 101/5/4 108/5/4
f 111/1/5 110/1/5 109/1/5
f 112/1/5 110/1/5 111/1/5
f 113/5/6 114/5/6 119/5/6
f 119/5/6 114/5/6 120/5/6
f 115/5/6 116/5/6 121/5/6
f 121/5/6 116/5/6 122/5/6
f 117/5/6 118/5/6 123/5/6
f 123/5/6 118/5/6 124/5/6
f 125/5/6 126/5/6 129/5/6
f 129/5/6 126/5/6 130/5/6
f 127/5/6 128/5/6 131/5/6
f 131/5/6 128/5/6 132/5/6
