# MagicaVoxel @ Ephtracy

# group
o 

# material
mtllib mimichi.mtl
usemtl palette

# normals
vn -1 0 0
vn 1 0 0
vn 0 0 1
vn 0 0 -1
vn 0 -1 0
vn 0 1 0

# texcoords
vt 0.00195312 0.5
vt 0.0253906 0.5
vt 0.837891 0.5

# verts
v -0.5 0 0
v -0.5 0 -0.1
v -0.5 0.2 0
v -0.5 0.2 -0.1
v -0.5 0.3 0
v -0.5 0.3 -0.1
v -0.5 0.5 0
v -0.5 0.5 -0.1
v -0.5 0.7 0
v -0.5 0.7 -0.1
v -0.3 0.7 0
v -0.3 0.7 -0.1
v -0.3 0.9 0
v -0.3 0.9 -0.1
v 0.1 0.7 0
v 0.1 0.7 -0.1
v 0.1 0.9 0
v 0.1 0.9 -0.1
v -0.1 0.7 0
v -0.1 0.7 -0.1
v -0.1 0.9 0
v -0.1 0.9 -0.1
v 0.3 0.7 0
v 0.3 0.7 -0.1
v 0.3 0.9 0
v 0.3 0.9 -0.1
v 0.5 0 0
v 0.5 0 -0.1
v 0.5 0.2 0
v 0.5 0.2 -0.1
v 0.5 0.3 0
v 0.5 0.3 -0.1
v 0.5 0.5 0
v 0.5 0.5 -0.1
v 0.5 0.7 0
v 0.5 0.7 -0.1
v -0.5 0 0
v -0.5 0.2 0
v -0.5 0.3 0
v -0.5 0.5 0
v -0.5 0.7 0
v -0.3 0.2 0
v -0.3 0.3 0
v -0.3 0.4 0
v -0.3 0.7 0
v -0.3 0.9 0
v -0.2 0.1 0
v -0.2 0.2 0
v -0.2 0.3 0
v -0.2 0.4 0
v -0.1 0 0
v -0.1 0.1 0
v -0.1 0.2 0
v -0.1 0.7 0
v -0.1 0.9 0
v 0.1 0 0
v 0.1 0.1 0
v 0.1 0.2 0
v 0.1 0.7 0
v 0.1 0.9 0
v 0.2 0.1 0
v 0.2 0.2 0
v 0.2 0.3 0
v 0.2 0.4 0
v 0.3 0.2 0
v 0.3 0.3 0
v 0.3 0.4 0
v 0.3 0.7 0
v 0.3 0.9 0
v 0.5 0 0
v 0.5 0.2 0
v 0.5 0.3 0
v 0.5 0.5 0
v 0.5 0.7 0
v -0.5 0 -0.1
v -0.5 0.2 -0.1
v -0.5 0.3 -0.1
v -0.5 0.5 -0.1
v -0.5 0.7 -0.1
v -0.3 0.2 -0.1
v -0.3 0.3 -0.1
v -0.3 0.4 -0.1
v -0.3 0.7 -0.1
v -0.3 0.9 -0.1
v -0.2 0.1 -0.1
v -0.2 0.2 -0.1
v -0.2 0.3 -0.1
v -0.2 0.4 -0.1
v -0.1 0 -0.1
v -0.1 0.1 -0.1
v -0.1 0.2 -0.1
v -0.1 0.7 -0.1
v -0.1 0.9 -0.1
v 0.1 0 -0.1
v 0.1 0.1 -0.1
v 0.1 0.2 -0.1
v 0.1 0.7 -0.1
v 0.1 0.9 -0.1
v 0.2 0.1 -0.1
v 0.2 0.2 -0.1
v 0.2 0.3 -0.1
v 0.2 0.4 -0.1
v 0.3 0.2 -0.1
v 0.3 0.3 -0.1
v 0.3 0.4 -0.1
v 0.3 0.7 -0.1
v 0.3 0.9 -0.1
v 0.5 0 -0.1
v 0.5 0.2 -0.1
v 0.5 0.3 -0.1
v 0.5 0.5 -0.1
v 0.5 0.7 -0.1
v -0.5 0 0
v -0.1 0 0
v 0.1 0 0
v 0.5 0 0
v -0.5 0 -0.1
v -0.1 0 -0.1
v 0.1 0 -0.1
v 0.5 0 -0.1
v -0.5 0.7 0
v -0.3 0.7 0
v -0.1 0.7 0
v 0.1 0.7 0
v 0.3 0.7 0
v 0.5 0.7 0
v -0.5 0.7 -0.1
v -0.3 0.7 -0.1
v -0.1 0.7 -0.1
v 0.1 0.7 -0.1
v 0.3 0.7 -0.1
v 0.5 0.7 -0.1
v -0.3 0.9 0
v -0.1 0.9 0
v 0.1 0.9 0
v 0.3 0.9 0
v -0.3 0.9 -0.1
v -0.1 0.9 -0.1
v 0.1 0.9 -0.1
v 0.3 0.9 -0.1

# faces
f 3/1/1 2/1/1 1/1/1
f 4/1/1 2/1/1 3/1/1
f 5/2/1 4/2/1 3/2/1
f 6/2/1 4/2/1 5/2/1
f 7/1/1 6/1/1 5/1/1
f 8/1/1 6/1/1 7/1/1
f 9/3/1 8/3/1 7/3/1
f 10/3/1 8/3/1 9/3/1
f 13/3/1 12/3/1 11/3/1
f 14/3/1 12/3/1 13/3/1
f 17/3/1 16/3/1 15/3/1
f 18/3/1 16/3/1 17/3/1
f 19/3/2 20/3/2 21/3/2
f 21/3/2 20/3/2 22/3/2
f 23/3/2 24/3/2 25/3/2
f 25/3/2 24/3/2 26/3/2
f 27/1/2 28/1/2 29/1/2
f 29/1/2 28/1/2 30/1/2
f 29/2/2 30/2/2 31/2/2
f 31/2/2 30/2/2 32/2/2
f 31/1/2 32/1/2 33/1/2
f 33/1/2 32/1/2 34/1/2
f 33/3/2 34/3/2 35/3/2
f 35/3/2 34/3/2 36/3/2
f 42/1/3 38/1/3 37/1/3
f 42/2/3 39/2/3 38/2/3
f 43/1/3 40/1/3 39/1/3
f 43/2/3 39/2/3 42/2/3
f 44/1/3 40/1/3 43/1/3
f 45/3/3 41/3/3 40/3/3
f 47/1/3 42/1/3 37/1/3
f 47/1/3 43/1/3 42/1/3
f 48/1/3 43/1/3 47/1/3
f 49/3/3 44/3/3 43/3/3
f 49/1/3 43/1/3 48/1/3
f 50/1/3 40/1/3 44/1/3
f 50/3/3 44/3/3 49/3/3
f 51/1/3 47/1/3 37/1/3
f 52/3/3 48/3/3 47/3/3
f 52/1/3 47/1/3 51/1/3
f 53/1/3 49/1/3 48/1/3
f 53/3/3 48/3/3 52/3/3
f 53/1/3 50/1/3 49/1/3
f 54/3/3 46/3/3 45/3/3
f 54/3/3 45/3/3 40/3/3
f 55/3/3 46/3/3 54/3/3
f 56/3/3 52/3/3 51/3/3
f 57/1/3 53/1/3 52/1/3
f 57/3/3 52/3/3 56/3/3
f 58/1/3 50/1/3 53/1/3
f 58/1/3 53/1/3 57/1/3
f 59/3/3 54/3/3 40/3/3
f 61/1/3 57/1/3 56/1/3
f 61/3/3 58/3/3 57/3/3
f 62/1/3 50/1/3 58/1/3
f 62/3/3 58/3/3 61/3/3
f 63/1/3 50/1/3 62/1/3
f 64/1/3 40/1/3 50/1/3
f 64/1/3 50/1/3 63/1/3
f 65/1/3 63/1/3 62/1/3
f 65/1/3 62/1/3 61/1/3
f 66/3/3 64/3/3 63/3/3
f 66/1/3 63/1/3 65/1/3
f 67/1/3 40/1/3 64/1/3
f 67/3/3 64/3/3 66/3/3
f 68/3/3 60/3/3 59/3/3
f 68/3/3 59/3/3 40/3/3
f 69/3/3 60/3/3 68/3/3
f 70/1/3 61/1/3 56/1/3
f 70/1/3 65/1/3 61/1/3
f 71/2/3 66/2/3 65/2/3
f 71/1/3 65/1/3 70/1/3
f 72/1/3 67/1/3 66/1/3
f 72/2/3 66/2/3 71/2/3
f 73/1/3 40/1/3 67/1/3
f 73/1/3 67/1/3 72/1/3
f 73/3/3 68/3/3 40/3/3
f 74/3/3 68/3/3 73/3/3
f 75/1/4 76/1/4 80/1/4
f 76/2/4 77/2/4 80/2/4
f 77/1/4 78/1/4 81/1/4
f 80/2/4 77/2/4 81/2/4
f 81/1/4 78/1/4 82/1/4
f 78/3/4 79/3/4 83/3/4
f 75/1/4 80/1/4 85/1/4
f 80/1/4 81/1/4 85/1/4
f 85/1/4 81/1/4 86/1/4
f 81/3/4 82/3/4 87/3/4
f 86/1/4 81/1/4 87/1/4
f 82/1/4 78/1/4 88/1/4
f 87/3/4 82/3/4 88/3/4
f 75/1/4 85/1/4 89/1/4
f 85/3/4 86/3/4 90/3/4
f 89/1/4 85/1/4 90/1/4
f 86/1/4 87/1/4 91/1/4
f 90/3/4 86/3/4 91/3/4
f 87/1/4 88/1/4 91/1/4
f 83/3/4 84/3/4 92/3/4
f 78/3/4 83/3/4 92/3/4
f 92/3/4 84/3/4 93/3/4
f 89/3/4 90/3/4 94/3/4
f 90/1/4 91/1/4 95/1/4
f 94/3/4 90/3/4 95/3/4
f 91/1/4 88/1/4 96/1/4
f 95/1/4 91/1/4 96/1/4
f 78/3/4 92/3/4 97/3/4
f 94/1/4 95/1/4 99/1/4
f 95/3/4 96/3/4 99/3/4
f 96/1/4 88/1/4 100/1/4
f 99/3/4 96/3/4 100/3/4
f 100/1/4 88/1/4 101/1/4
f 88/1/4 78/1/4 102/1/4
f 101/1/4 88/1/4 102/1/4
f 100/1/4 101/1/4 103/1/4
f 99/1/4 100/1/4 103/1/4
f 101/3/4 102/3/4 104/3/4
f 103/1/4 101/1/4 104/1/4
f 102/1/4 78/1/4 105/1/4
f 104/3/4 102/3/4 105/3/4
f 97/3/4 98/3/4 106/3/4
f 78/3/4 97/3/4 106/3/4
f 106/3/4 98/3/4 107/3/4
f 94/1/4 99/1/4 108/1/4
f 99/1/4 103/1/4 108/1/4
f 103/2/4 104/2/4 109/2/4
f 108/1/4 103/1/4 109/1/4
f 104/1/4 105/1/4 110/1/4
f 109/2/4 104/2/4 110/2/4
f 105/1/4 78/1/4 111/1/4
f 110/1/4 105/1/4 111/1/4
f 78/3/4 106/3/4 111/3/4
f 111/3/4 106/3/4 112/3/4
f 117/1/5 114/1/5 113/1/5
f 118/3/5 115/3/5 114/3/5
f 118/1/5 114/1/5 117/1/5
f 119/1/5 116/1/5 115/1/5
f 119/3/5 115/3/5 118/3/5
f 120/1/5 116/1/5 119/1/5
f 121/3/6 122/3/6 127/3/6
f 127/3/6 122/3/6 128/3/6
f 123/3/6 124/3/6 129/3/6
f 129/3/6 124/3/6 130/3/6
f 125/3/6 126/3/6 131/3/6
f 131/3/6 126/3/6 132/3/6
f 133/3/6 134/3/6 137/3/6
f 137/3/6 134/3/6 138/3/6
f 135/3/6 136/3/6 139/3/6
f 139/3/6 136/3/6 140/3/6
