# MagicaVoxel @ Ephtracy

# group
o 

# material
mtllib mimichi2.mtl
usemtl palette

# normals
vn -1 0 0
vn 1 0 0
vn 0 0 1
vn 0 0 -1
vn 0 -1 0
vn 0 1 0

# texcoords
vt 0.00195312 0.5
vt 0.0253906 0.5
vt 0.837891 0.5
vt 0.947266 0.5
vt 0.951172 0.5

# verts
v -0.5 0 0
v -0.5 0 -0.1
v -0.5 0.2 0
v -0.5 0.2 -0.1
v -0.5 0.3 0
v -0.5 0.3 -0.1
v -0.5 0.5 0
v -0.5 0.5 -0.1
v -0.5 0.7 0
v -0.5 0.7 -0.1
v -0.5 0.8 0
v -0.5 0.8 -0.1
v -0.3 0.8 0
v -0.3 0.8 -0.1
v -0.3 0.9 0
v -0.3 0.9 -0.1
v -0.3 1 0
v -0.3 1 -0.1
v 0.1 0.8 0
v 0.1 0.8 -0.1
v 0.1 0.9 0
v 0.1 0.9 -0.1
v 0.1 1 0
v 0.1 1 -0.1
v -0.1 0.8 0
v -0.1 0.8 -0.1
v -0.1 0.9 0
v -0.1 0.9 -0.1
v -0.1 1 0
v -0.1 1 -0.1
v 0.3 0.8 0
v 0.3 0.8 -0.1
v 0.3 0.9 0
v 0.3 0.9 -0.1
v 0.3 1 0
v 0.3 1 -0.1
v 0.5 0 0
v 0.5 0 -0.1
v 0.5 0.2 0
v 0.5 0.2 -0.1
v 0.5 0.3 0
v 0.5 0.3 -0.1
v 0.5 0.5 0
v 0.5 0.5 -0.1
v 0.5 0.7 0
v 0.5 0.7 -0.1
v 0.5 0.8 0
v 0.5 0.8 -0.1
v -0.5 0 0
v -0.5 0.2 0
v -0.5 0.3 0
v -0.5 0.5 0
v -0.5 0.7 0
v -0.5 0.8 0
v -0.3 0.2 0
v -0.3 0.3 0
v -0.3 0.4 0
v -0.3 0.7 0
v -0.3 0.8 0
v -0.3 0.9 0
v -0.3 1 0
v -0.2 0.3 0
v -0.2 0.4 0
v -0.1 0.1 0
v -0.1 0.2 0
v -0.1 0.7 0
v -0.1 0.8 0
v -0.1 0.9 0
v -0.1 1 0
v 0 0.1 0
v 0 0.2 0
v 0.1 0.1 0
v 0.1 0.2 0
v 0.1 0.7 0
v 0.1 0.8 0
v 0.1 0.9 0
v 0.1 1 0
v 0.2 0.3 0
v 0.2 0.4 0
v 0.3 0.2 0
v 0.3 0.3 0
v 0.3 0.4 0
v 0.3 0.7 0
v 0.3 0.8 0
v 0.3 0.9 0
v 0.3 1 0
v 0.5 0 0
v 0.5 0.2 0
v 0.5 0.3 0
v 0.5 0.5 0
v 0.5 0.7 0
v 0.5 0.8 0
v -0.5 0 -0.1
v -0.5 0.2 -0.1
v -0.5 0.3 -0.1
v -0.5 0.5 -0.1
v -0.5 0.7 -0.1
v -0.5 0.8 -0.1
v -0.3 0.2 -0.1
v -0.3 0.3 -0.1
v -0.3 0.4 -0.1
v -0.3 0.7 -0.1
v -0.3 0.8 -0.1
v -0.3 0.9 -0.1
v -0.3 1 -0.1
v -0.2 0.3 -0.1
v -0.2 0.4 -0.1
v -0.1 0.1 -0.1
v -0.1 0.2 -0.1
v -0.1 0.7 -0.1
v -0.1 0.8 -0.1
v -0.1 0.9 -0.1
v -0.1 1 -0.1
v 0 0.1 -0.1
v 0 0.2 -0.1
v 0.1 0.1 -0.1
v 0.1 0.2 -0.1
v 0.1 0.7 -0.1
v 0.1 0.8 -0.1
v 0.1 0.9 -0.1
v 0.1 1 -0.1
v 0.2 0.3 -0.1
v 0.2 0.4 -0.1
v 0.3 0.2 -0.1
v 0.3 0.3 -0.1
v 0.3 0.4 -0.1
v 0.3 0.7 -0.1
v 0.3 0.8 -0.1
v 0.3 0.9 -0.1
v 0.3 1 -0.1
v 0.5 0 -0.1
v 0.5 0.2 -0.1
v 0.5 0.3 -0.1
v 0.5 0.5 -0.1
v 0.5 0.7 -0.1
v 0.5 0.8 -0.1
v -0.5 0 0
v 0.5 0 0
v -0.5 0 -0.1
v 0.5 0 -0.1
v -0.5 0.8 0
v -0.3 0.8 0
v -0.1 0.8 0
v 0.1 0.8 0
v 0.3 0.8 0
v 0.5 0.8 0
v -0.5 0.8 -0.1
v -0.3 0.8 -0.1
v -0.1 0.8 -0.1
v 0.1 0.8 -0.1
v 0.3 0.8 -0.1
v 0.5 0.8 -0.1
v -0.3 1 0
v -0.1 1 0
v 0.1 1 0
v 0.3 1 0
v -0.3 1 -0.1
v -0.1 1 -0.1
v 0.1 1 -0.1
v 0.3 1 -0.1

# faces
f 3/1/1 2/1/1 1/1/1
f 4/1/1 2/1/1 3/1/1
f 5/2/1 4/2/1 3/2/1
f 6/2/1 4/2/1 5/2/1
f 7/1/1 6/1/1 5/1/1
f 8/1/1 6/1/1 7/1/1
f 9/3/1 8/3/1 7/3/1
f 10/3/1 8/3/1 9/3/1
f 11/5/1 10/5/1 9/5/1
f 12/5/1 10/5/1 11/5/1
f 15/3/1 14/3/1 13/3/1
f 16/3/1 14/3/1 15/3/1
f 17/4/1 16/4/1 15/4/1
f 18/4/1 16/4/1 17/4/1
f 21/3/1 20/3/1 19/3/1
f 22/3/1 20/3/1 21/3/1
f 23/4/1 22/4/1 21/4/1
f 24/4/1 22/4/1 23/4/1
f 25/3/2 26/3/2 27/3/2
f 27/3/2 26/3/2 28/3/2
f 27/4/2 28/4/2 29/4/2
f 29/4/2 28/4/2 30/4/2
f 31/3/2 32/3/2 33/3/2
f 33/3/2 32/3/2 34/3/2
f 33/4/2 34/4/2 35/4/2
f 35/4/2 34/4/2 36/4/2
f 37/1/2 38/1/2 39/1/2
f 39/1/2 38/1/2 40/1/2
f 39/2/2 40/2/2 41/2/2
f 41/2/2 40/2/2 42/2/2
f 41/1/2 42/1/2 43/1/2
f 43/1/2 42/1/2 44/1/2
f 43/3/2 44/3/2 45/3/2
f 45/3/2 44/3/2 46/3/2
f 45/4/2 46/4/2 47/4/2
f 47/4/2 46/4/2 48/4/2
f 55/1/3 50/1/3 49/1/3
f 55/2/3 51/2/3 50/2/3
f 56/1/3 52/1/3 51/1/3
f 56/2/3 51/2/3 55/2/3
f 57/1/3 52/1/3 56/1/3
f 58/5/3 54/5/3 53/5/3
f 58/3/3 53/3/3 52/3/3
f 59/5/3 54/5/3 58/5/3
f 62/3/3 57/3/3 56/3/3
f 62/1/3 56/1/3 55/1/3
f 63/1/3 52/1/3 57/1/3
f 63/3/3 57/3/3 62/3/3
f 64/1/3 62/1/3 55/1/3
f 64/1/3 55/1/3 49/1/3
f 64/1/3 63/1/3 62/1/3
f 65/1/3 63/1/3 64/1/3
f 66/3/3 59/3/3 58/3/3
f 66/3/3 60/3/3 59/3/3
f 66/3/3 58/3/3 52/3/3
f 67/3/3 60/3/3 66/3/3
f 68/4/3 61/4/3 60/4/3
f 68/3/3 60/3/3 67/3/3
f 69/4/3 61/4/3 68/4/3
f 70/4/3 65/4/3 64/4/3
f 70/1/3 64/1/3 49/1/3
f 71/1/3 63/1/3 65/1/3
f 71/4/3 65/4/3 70/4/3
f 72/1/3 70/1/3 49/1/3
f 72/3/3 71/3/3 70/3/3
f 73/1/3 63/1/3 71/1/3
f 73/3/3 71/3/3 72/3/3
f 74/4/3 67/4/3 66/4/3
f 74/3/3 66/3/3 52/3/3
f 75/4/3 67/4/3 74/4/3
f 78/1/3 63/1/3 73/1/3
f 78/1/3 73/1/3 72/1/3
f 79/1/3 52/1/3 63/1/3
f 79/1/3 63/1/3 78/1/3
f 80/1/3 78/1/3 72/1/3
f 81/3/3 79/3/3 78/3/3
f 81/1/3 78/1/3 80/1/3
f 82/1/3 52/1/3 79/1/3
f 82/3/3 79/3/3 81/3/3
f 83/3/3 76/3/3 75/3/3
f 83/3/3 74/3/3 52/3/3
f 83/3/3 75/3/3 74/3/3
f 84/3/3 76/3/3 83/3/3
f 85/4/3 77/4/3 76/4/3
f 85/3/3 76/3/3 84/3/3
f 86/4/3 77/4/3 85/4/3
f 87/1/3 72/1/3 49/1/3
f 87/1/3 80/1/3 72/1/3
f 88/2/3 81/2/3 80/2/3
f 88/1/3 80/1/3 87/1/3
f 89/1/3 82/1/3 81/1/3
f 89/2/3 81/2/3 88/2/3
f 90/1/3 52/1/3 82/1/3
f 90/1/3 82/1/3 89/1/3
f 90/3/3 83/3/3 52/3/3
f 91/4/3 84/4/3 83/4/3
f 91/3/3 83/3/3 90/3/3
f 92/4/3 84/4/3 91/4/3
f 93/1/4 94/1/4 99/1/4
f 94/2/4 95/2/4 99/2/4
f 95/1/4 96/1/4 100/1/4
f 99/2/4 95/2/4 100/2/4
f 100/1/4 96/1/4 101/1/4
f 97/5/4 98/5/4 102/5/4
f 96/3/4 97/3/4 102/3/4
f 102/5/4 98/5/4 103/5/4
f 100/3/4 101/3/4 106/3/4
f 99/1/4 100/1/4 106/1/4
f 101/1/4 96/1/4 107/1/4
f 106/3/4 101/3/4 107/3/4
f 99/1/4 106/1/4 108/1/4
f 93/1/4 99/1/4 108/1/4
f 106/1/4 107/1/4 108/1/4
f 108/1/4 107/1/4 109/1/4
f 102/3/4 103/3/4 110/3/4
f 103/3/4 104/3/4 110/3/4
f 96/3/4 102/3/4 110/3/4
f 110/3/4 104/3/4 111/3/4
f 104/4/4 105/4/4 112/4/4
f 111/3/4 104/3/4 112/3/4
f 112/4/4 105/4/4 113/4/4
f 108/4/4 109/4/4 114/4/4
f 93/1/4 108/1/4 114/1/4
f 109/1/4 107/1/4 115/1/4
f 114/4/4 109/4/4 115/4/4
f 93/1/4 114/1/4 116/1/4
f 114/3/4 115/3/4 116/3/4
f 115/1/4 107/1/4 117/1/4
f 116/3/4 115/3/4 117/3/4
f 110/4/4 111/4/4 118/4/4
f 96/3/4 110/3/4 118/3/4
f 118/4/4 111/4/4 119/4/4
f 117/1/4 107/1/4 122/1/4
f 116/1/4 117/1/4 122/1/4
f 107/1/4 96/1/4 123/1/4
f 122/1/4 107/1/4 123/1/4
f 116/1/4 122/1/4 124/1/4
f 122/3/4 123/3/4 125/3/4
f 124/1/4 122/1/4 125/1/4
f 123/1/4 96/1/4 126/1/4
f 125/3/4 123/3/4 126/3/4
f 119/3/4 120/3/4 127/3/4
f 96/3/4 118/3/4 127/3/4
f 118/3/4 119/3/4 127/3/4
f 127/3/4 120/3/4 128/3/4
f 120/4/4 121/4/4 129/4/4
f 128/3/4 120/3/4 129/3/4
f 129/4/4 121/4/4 130/4/4
f 93/1/4 116/1/4 131/1/4
f 116/1/4 124/1/4 131/1/4
f 124/2/4 125/2/4 132/2/4
f 131/1/4 124/1/4 132/1/4
f 125/1/4 126/1/4 133/1/4
f 132/2/4 125/2/4 133/2/4
f 126/1/4 96/1/4 134/1/4
f 133/1/4 126/1/4 134/1/4
f 96/3/4 127/3/4 134/3/4
f 127/4/4 128/4/4 135/4/4
f 134/3/4 127/3/4 135/3/4
f 135/4/4 128/4/4 136/4/4
f 139/1/5 138/1/5 137/1/5
f 140/1/5 138/1/5 139/1/5
f 141/5/6 142/5/6 147/5/6
f 147/5/6 142/5/6 148/5/6
f 143/4/6 144/4/6 149/4/6
f 149/4/6 144/4/6 150/4/6
f 145/4/6 146/4/6 151/4/6
f 151/4/6 146/4/6 152/4/6
f 153/4/6 154/4/6 157/4/6
f 157/4/6 154/4/6 158/4/6
f 155/4/6 156/4/6 159/4/6
f 159/4/6 156/4/6 160/4/6
